<svg id="Layer_1" data-name="Layer 1" xmlns="http://www.w3.org/2000/svg" width="96" height="32" viewBox="0 0 96 32"><defs><style>.cls-1{fill:none;}.cls-2{fill:#414141;}</style></defs><title>Artboard 1</title><g id="Calendar.S"><path id="Path_664" data-name="Path 664" class="cls-1" d="M0,0H32V32H0Z"/><g id="Group_3981" data-name="Group 3981"><path id="Path_1897" data-name="Path 1897" class="cls-2" d="M18.5,10V8h-1v2h-3V8h-1v2H8V24H24V10ZM23,23H9V11H23Z"/><g id="Group_3980" data-name="Group 3980"><rect id="Rectangle_1862" data-name="Rectangle 1862" class="cls-2" x="11" y="13.9" width="2" height="2"/><rect id="Rectangle_1863" data-name="Rectangle 1863" class="cls-2" x="15" y="13.9" width="2" height="2"/><rect id="Rectangle_1864" data-name="Rectangle 1864" class="cls-2" x="19" y="13.9" width="2" height="2"/><rect id="Rectangle_1865" data-name="Rectangle 1865" class="cls-2" x="11" y="17.9" width="2" height="2"/><rect id="Rectangle_1866" data-name="Rectangle 1866" class="cls-2" x="15" y="17.9" width="2" height="2"/><rect id="Rectangle_1867" data-name="Rectangle 1867" class="cls-2" x="19" y="17.9" width="2" height="2"/></g></g></g><g id="AngleBackwards-12"><rect id="Rectangle_315" data-name="Rectangle 315" class="cls-1" x="64" width="32" height="32"/><path id="Path_1993" data-name="Path 1993" class="cls-2" d="M80.9,20.6,76.3,16l4.6-4.6.7.7L77.7,16l3.9,3.9Z"/></g><g id="AngleForwards-12"><rect id="Rectangle_315-2" data-name="Rectangle 315" class="cls-1" x="32" width="32" height="32"/><path id="Path_1994" data-name="Path 1994" class="cls-2" d="M47.1,20.6l-.7-.7L50.3,16l-3.9-3.9.7-.7L51.7,16Z"/></g></svg>