<svg xmlns="http://www.w3.org/2000/svg" xmlns:xlink="http://www.w3.org/1999/xlink" width="1200" height="1137.285" viewBox="0 0 1200 1137.285"><defs><clipPath id="b"><rect width="1200" height="1137.285"/></clipPath></defs><g id="a" clip-path="url(#b)"><rect width="1200" height="1137.285" fill="#f9f9f9"/><g transform="translate(3 -576)"><g transform="translate(30 974)"><rect width="1133.842" height="58" transform="translate(0)" fill="#d1d2d3"/></g><g transform="translate(30 974)"><rect width="1133.842" height="58" transform="translate(0)" fill="#d1d2d3"/></g><g transform="translate(418 637)"><rect width="723.654" height="32" transform="translate(744.109 280) rotate(180)" fill="#d1d2d3"/><rect width="743.654" height="32" transform="translate(745.871 218) rotate(180)" fill="#d1d2d3"/><rect width="731.654" height="32" transform="translate(744.802 156) rotate(180)" fill="#d1d2d3"/><rect width="723.654" height="32" transform="translate(743.654 94) rotate(180)" fill="#d1d2d3"/><rect width="743.654" height="32" transform="translate(743.654 32) rotate(180)" fill="#d1d2d3"/></g><g transform="translate(30 1089)"><rect width="552" height="218" fill="#d1d2d3"/></g><g transform="translate(30 636)"><rect width="358" height="281" fill="#d1d2d3"/></g><g transform="translate(612 1089)"><rect width="551.871" height="218" fill="#d1d2d3"/></g><rect width="338" height="32" transform="translate(388 1636) rotate(180)" fill="#d1d2d3"/><rect width="335.28" height="32" transform="translate(776 1636) rotate(180)" fill="#d1d2d3"/><rect width="338" height="32" transform="translate(1164 1636) rotate(180)" fill="#d1d2d3"/><rect width="358" height="32" transform="translate(388 1574) rotate(180)" fill="#d1d2d3"/><rect width="355.28" height="32" transform="translate(773.279 1574) rotate(180)" fill="#d1d2d3"/><rect width="358" height="32" transform="translate(1164 1574) rotate(180)" fill="#d1d2d3"/><rect width="346" height="32" transform="translate(388 1512) rotate(180)" fill="#d1d2d3"/><rect width="343.28" height="32" transform="translate(774.934 1512) rotate(180)" fill="#d1d2d3"/><rect width="346" height="32" transform="translate(1164 1512) rotate(180)" fill="#d1d2d3"/><rect width="358" height="96" transform="translate(388 1452) rotate(180)" fill="#d1d2d3"/><rect width="355.28" height="96" transform="translate(773.279 1452) rotate(180)" fill="#d1d2d3"/><rect width="358" height="96" transform="translate(1164 1452) rotate(180)" fill="#d1d2d3"/></g></g></svg>