<svg xmlns="http://www.w3.org/2000/svg" xmlns:xlink="http://www.w3.org/1999/xlink" width="1200" height="1137.285" viewBox="0 0 1200 1137.285"><defs><clipPath id="b"><rect width="1200" height="1137.285"/></clipPath></defs><g id="a" clip-path="url(#b)"><rect width="1200" height="1137.285" fill="#f9f9f9"/><g transform="translate(3 -588)"><g transform="translate(30 1124.199)"><rect width="746.172" height="528" transform="translate(0)" fill="#d1d2d3"/><rect width="358" height="32" transform="translate(776)" fill="#d1d2d3"/><rect width="358" height="32" transform="translate(776 310)" fill="#d1d2d3"/><rect width="334.678" height="32" transform="translate(776 62)" fill="#d1d2d3"/><rect width="334.678" height="32" transform="translate(776 372)" fill="#d1d2d3"/><rect width="358" height="32" transform="translate(776 124)" fill="#d1d2d3"/><rect width="358" height="32" transform="translate(776 434)" fill="#d1d2d3"/><rect width="334.678" height="32" transform="translate(776 186)" fill="#d1d2d3"/><rect width="334.678" height="32" transform="translate(776 496)" fill="#d1d2d3"/><rect width="347.505" height="32" transform="translate(776 248)" fill="#d1d2d3"/></g><g transform="translate(30 1036)"><rect width="1134" height="58" transform="translate(0)" fill="#d1d2d3"/></g><rect width="163.604" height="163.6" transform="translate(30 648)" fill="#d1d2d3"/><rect width="357.604" height="357.6" transform="translate(806.396 648)" fill="#d1d2d3"/><rect width="163.604" height="163.6" transform="translate(30 842)" fill="#d1d2d3"/><rect width="163.604" height="163.6" transform="translate(224.396 648)" fill="#d1d2d3"/><rect width="357.604" height="66.8" transform="translate(418.396 648)" fill="#d1d2d3"/><rect width="260.604" height="66.8" transform="translate(418.396 745)" fill="#d1d2d3"/><rect width="306.604" height="66.8" transform="translate(418.396 842)" fill="#d1d2d3"/><rect width="357.604" height="66.8" transform="translate(418.396 939.001)" fill="#d1d2d3"/><rect width="163.604" height="163.6" transform="translate(224.396 842)" fill="#d1d2d3"/></g></g></svg>