<svg xmlns="http://www.w3.org/2000/svg" width="76.001" height="22.166" viewBox="0 0 76.001 22.166">
  <g id="logo_complete_Hitachi" data-name="logo complete Hitachi" transform="translate(0 0)">
    <path id="Path_30" data-name="Path 30" d="M1148.724,35.545v-.982h-.08c-.16,0-.4-.082-.561-.082a1.446,1.446,0,0,0-1.281.9V34.4h-.08l-1.922.327v.327h.08c.641,0,.721.164.721.736v3.272h1.2V36.69a1.2,1.2,0,0,1,1.281-1.309,3.407,3.407,0,0,1,.4.082l.16.082h0Z" transform="translate(-1120.934 -18.941)"/>
    <path id="Path_31" data-name="Path 31" d="M1154.625,36.481a1.752,1.752,0,0,0-2-1.881c-1.522,0-2.323.736-2.323,2.208a2.384,2.384,0,0,0,2.643,2.536,4.814,4.814,0,0,0,1.522-.245h.08v-.573l-.08.082a2.931,2.931,0,0,1-.961.164,1.939,1.939,0,0,1-1.842-2.127h2.963Zm-2.082-1.39c.641,0,.8.491.881.9h-1.762A.889.889,0,0,1,1152.542,35.091Z" transform="translate(-1122.03 -18.977)"/>
    <path id="Path_19" data-name="Path 19" d="M1187.523,15.7v4.171h5.526V15.7h2.723V26.251h-2.723V21.589h-5.526v4.662H1184.8V15.7Z" transform="translate(-1128.9 -15.536)"/>
    <path id="Path_20" data-name="Path 20" d="M1153.152,15.7v1.8h-4.164v8.752h-2.723V17.5H1142.1V15.7Z" transform="translate(-1120.397 -15.536)"/>
    <path id="Path_21" data-name="Path 21" d="M1165.874,26.251h-3.043l-.881-2.29h-5.125l-.881,2.29H1152.9L1157.7,15.7h3.364Zm-6.407-8.752-1.922,4.744h3.764l-1.842-4.744" transform="translate(-1122.547 -15.536)"/>
    <rect id="Rectangle_38" data-name="Rectangle 38" width="2.723" height="10.551" transform="translate(69.034 0.164)"/>
    <path id="Path_22" data-name="Path 22" d="M1123.823,15.7v4.171h5.526V15.7h2.723V26.251h-2.723V21.589h-5.526v4.662H1121.1V15.7Z" transform="translate(-1116.215 -15.536)"/>
    <rect id="Rectangle_39" data-name="Rectangle 39" width="2.723" height="10.551" transform="translate(18.019 0.164)"/>
    <path id="Path_23" data-name="Path 23" d="M1168.9,23.27a7.147,7.147,0,0,1-.4-2.208,5.468,5.468,0,0,1,.721-3.026,4.56,4.56,0,0,1,2.323-1.963,9.164,9.164,0,0,1,3.043-.573,8.147,8.147,0,0,1,3.444.736,3.188,3.188,0,0,1,1.922,2.454,1.837,1.837,0,0,1,.08.654h-2.883a2.961,2.961,0,0,0-.16-.818,2.125,2.125,0,0,0-1.281-1.227,6.055,6.055,0,0,0-1.2-.164,3.671,3.671,0,0,0-1.361.245,2.425,2.425,0,0,0-1.522,1.554,6.733,6.733,0,0,0-.4,2.208,7.582,7.582,0,0,0,.24,1.881,2.554,2.554,0,0,0,1.522,1.636,4.449,4.449,0,0,0,1.442.245,6.872,6.872,0,0,0,1.281-.164,1.962,1.962,0,0,0,1.2-1.063,2.66,2.66,0,0,0,.24-1.145h2.883a4.2,4.2,0,0,1-.16.982,3.246,3.246,0,0,1-1.922,2.29,8.25,8.25,0,0,1-3.524.736,10.56,10.56,0,0,1-2.8-.409A5.535,5.535,0,0,1,1168.9,23.27Z" transform="translate(-1125.654 -15.5)"/>
    <path id="Path_24" data-name="Path 24" d="M1117.4,32.1l-2.4.245v.327h.08c.961.082.961.082.961.818v5.235h1.442V32.1Z" transform="translate(-1115 -18.522)"/>
    <path id="Path_25" data-name="Path 25" d="M1123.564,34.6a2.159,2.159,0,0,0-1.682.982V34.6h-.08l-2,.327v.327h.08c.641,0,.721.164.721.736v3.272h1.2V36.89c0-.654.561-1.472,1.2-1.472.561,0,.641.491.641,1.309v2.536h1.2V35.99A1.152,1.152,0,0,0,1123.564,34.6Z" transform="translate(-1115.956 -18.977)"/>
    <path id="Path_26" data-name="Path 26" d="M1129.982,36.381c-.48-.245-.881-.491-.881-.818,0-.409.48-.409.641-.409a1.811,1.811,0,0,1,1.121.409l.16.082v-.982h-.16a3.642,3.642,0,0,0-1.121-.164c-1.121,0-1.842.491-1.842,1.39,0,.736.721,1.145,1.361,1.472.48.245.961.491.961.818s-.321.573-.8.573a2.988,2.988,0,0,1-1.361-.491l-.08-.082v.982h.08a4.669,4.669,0,0,0,1.361.164c1.281,0,2-.491,2-1.39C1131.344,37.036,1130.623,36.708,1129.982,36.381Z" transform="translate(-1117.569 -18.959)"/>
    <path id="Path_27" data-name="Path 27" d="M1136.364,34.6a1.792,1.792,0,0,0-1.281.654V34.6H1135l-2,.327v.327h.08c.641,0,.721.164.721.736v5.153h1.2V38.771a1.6,1.6,0,0,0,1.281.573c1.281,0,2-.818,2-2.454C1138.286,35.418,1137.565,34.6,1136.364,34.6Zm-.32.654c.8,0,.961.9.961,1.636,0,1.227-.32,1.8-.961,1.8-.8,0-.961-.736-.961-1.39V36.89C1135.082,36.4,1135.162,35.254,1136.043,35.254Z" transform="translate(-1118.585 -18.977)"/>
    <path id="Path_28" data-name="Path 28" d="M1140.7,34.827v.327h.08c.641,0,.721.164.721.736v3.272h1.2V34.5h-.08Z" transform="translate(-1120.118 -18.959)"/>
    <path id="Path_29" data-name="Path 29" d="M1142.321,33.609a.8.8,0,0,0,.8-.654c0-.409-.32-.654-.8-.654a.657.657,0,1,0,0,1.309Z" transform="translate(-1120.297 -18.559)"/>
    <path id="Path_38" data-name="Path 38" d="M1202.584,36.172l1.281-1.472h-1.281l-1.2,1.39-1.041-1.39H1198.5v.327h.08a1.4,1.4,0,0,1,1.2.654l.8,1.063-1.281,1.472h1.281l.561-.654,1.2,1.636h1.442l-2.323-3.108h1.121Z" transform="translate(-1131.628 -18.996)"/>
    <path id="Path_35" data-name="Path 35" d="M1189.508,32.3h-1.2v4.989c-.24-.409-3.2-4.989-3.2-4.989h-2.8v.409h.24c.721.164.8.164.8.9v5.235h1.281V33.609c.24.409,3.364,5.235,3.364,5.235h1.6V32.3Z" transform="translate(-1128.402 -18.559)"/>
    <path id="Path_36" data-name="Path 36" d="M1197.225,36.481a1.752,1.752,0,0,0-2-1.881c-1.522,0-2.322.736-2.322,2.208a2.384,2.384,0,0,0,2.643,2.536,4.815,4.815,0,0,0,1.522-.245h.08v-.573l-.08.082a2.932,2.932,0,0,1-.961.164,1.939,1.939,0,0,1-1.842-2.127h2.963Zm-2.082-1.39c.641,0,.8.491.881.9h-1.762A.838.838,0,0,1,1195.142,35.091Z" transform="translate(-1130.513 -18.977)"/>
    <path id="Path_37" data-name="Path 37" d="M1206.5,32.864v1.39h-.8v.573h.8v2.781c0,1.227.8,1.309,1.682,1.309a2.173,2.173,0,0,0,.721-.082h.08v-.573h-.48c-.721,0-.8-.245-.8-.9v-2.7h1.361V34.09H1207.7V32.7h-1.2Z" transform="translate(-1133.062 -18.632)"/>
    <path id="Path_32" data-name="Path 32" d="M1168.784,34.127a1.967,1.967,0,0,0-1.682.982V32h-.08l-1.922.245v.327h.08c.641,0,.721.164.721.736v5.4h1.2V36.335c0-.818.641-1.554,1.121-1.554.721,0,.721.491.721.982v2.863h1.2V35.6A1.28,1.28,0,0,0,1168.784,34.127Z" transform="translate(-1124.977 -18.504)"/>
    <path id="Path_33" data-name="Path 33" d="M1177.225,36.481a1.752,1.752,0,0,0-2-1.881c-1.522,0-2.323.736-2.323,2.208a2.384,2.384,0,0,0,2.643,2.536,4.814,4.814,0,0,0,1.522-.245h.08v-.573l-.08.082a2.93,2.93,0,0,1-.961.164c-1.281,0-1.762-1.145-1.842-2.127h3.043v-.164Zm-2.082-1.39c.641,0,.8.491.881.9h-1.762A.89.89,0,0,1,1175.142,35.091Z" transform="translate(-1126.53 -18.977)"/>
    <path id="Path_34" data-name="Path 34" d="M1160.9,32.864v1.39h-.8v.573h.8v2.781c0,1.227.8,1.309,1.682,1.309a2.173,2.173,0,0,0,.721-.082h.08v-.573h-.48c-.721,0-.8-.245-.8-.9v-2.7h1.361V34.09H1162.1V32.7h-1.2Z" transform="translate(-1123.981 -18.632)"/>
    <path id="Path_39" data-name="Path 39" d="M1206.381,32.5H1205.1l1.6-1.8h1.281Z" transform="translate(-1132.943 -18.267)" fill="#ed1b34"/>
  </g>
</svg>
