<svg id="Layer_1" data-name="Layer 1" xmlns="http://www.w3.org/2000/svg" width="96" height="32" viewBox="0 0 96 32"><defs><style>.cls-1{fill:#242930;}</style></defs><title>Artboard 1</title><path id="Path_384" data-name="Path 384" class="cls-1" d="M18.4,17.4A5,5,0,0,0,16.1,8H16a5,5,0,0,0-5,4.9V13a5,5,0,0,0,2.6,4.4C10.6,18.3,8,20.9,8,24H9c0-3.4,3.8-6,7-6s7,2.6,7,6h1C24,20.9,21.4,18.3,18.4,17.4ZM12,13a4,4,0,1,1,4,4A4,4,0,0,1,12,13Z"/><path id="Path_387" data-name="Path 387" class="cls-1" d="M80,9a7,7,0,0,1,7,6.91V16a7,7,0,0,1-6.91,7H80a7,7,0,0,1-7-6.91V16a7,7,0,0,1,6.91-7H80m0-1a8,8,0,1,0,8,8A8,8,0,0,0,80,8Z"/><g id="Group_899" data-name="Group 899"><path id="Path_388" data-name="Path 388" class="cls-1" d="M79.1,18.7v-.4a4.41,4.41,0,0,1,.2-1.3,7.21,7.21,0,0,1,.9-1.1,6.49,6.49,0,0,0,1.2-1.2,1.65,1.65,0,0,0,.2-1,1.38,1.38,0,0,0-.4-1.1,2.36,2.36,0,0,0-1.3-.3,4.51,4.51,0,0,0-1.1.1,6.41,6.41,0,0,0-1.1.5l-.4-.9a5,5,0,0,1,2.7-.7,3,3,0,0,1,2,.6,2.13,2.13,0,0,1,.7,1.8,2.71,2.71,0,0,1-.1.9,1.53,1.53,0,0,1-.4.7,10.39,10.39,0,0,1-1.1,1.1,2.7,2.7,0,0,0-.9,1,1.8,1.8,0,0,0-.3,1.1v.2Zm.9,2H79v-1h1Z"/></g><g id="Group_896" data-name="Group 896"><path id="Path_385" data-name="Path 385" class="cls-1" d="M56,15.4l-.1-.9h-1a9.09,9.09,0,0,0-.9-2.3l.7-.7-.6-.7a6.86,6.86,0,0,0-.8-.9l-.7-.6-.7.7a6.54,6.54,0,0,0-2.3-.9v-1l-1-.1H47.4l-.9.1v1a9.6,9.6,0,0,0-2.3,1l-.1-.1-.6-.6-.7.5a6.86,6.86,0,0,0-.8.9l-.6.7.6.6.1.1a6.54,6.54,0,0,0-.9,2.3h-1l-.2.9v1.2l.1.9h1a9.09,9.09,0,0,0,.9,2.3v.1l-.6.6.6.7a6.86,6.86,0,0,0,.8.9l.7.6.6-.7.1-.1a6.54,6.54,0,0,0,2.3.9v1l.9.2h1.2l.9-.1v-1a9.09,9.09,0,0,0,2.3-.9l.7.7.7-.6a3.43,3.43,0,0,0,.8-.9l.6-.7-.7-.7a4.94,4.94,0,0,0,.9-2.3h1l.2-.9Zm-1,1.1H54a5.77,5.77,0,0,1-1.4,3.4l.7.7a2.34,2.34,0,0,1-.7.7l-.7-.7A5.77,5.77,0,0,1,48.5,22v1h-1V22a5.77,5.77,0,0,1-3.4-1.4l-.7.7a2.34,2.34,0,0,1-.7-.7l.7-.7A5.77,5.77,0,0,1,42,16.5H41v-1h1a5.77,5.77,0,0,1,1.4-3.4l-.7-.7a2.34,2.34,0,0,1,.7-.7l.7.7A5.77,5.77,0,0,1,47.5,10V9h1v1a5.77,5.77,0,0,1,3.4,1.4l.7-.7a2.34,2.34,0,0,1,.7.7l-.7.7A5.77,5.77,0,0,1,54,15.5h1Z"/></g><g id="Group_897" data-name="Group 897"><path id="Path_386" data-name="Path 386" class="cls-1" d="M48,13a2.94,2.94,0,0,1,3,2.89V16a2.94,2.94,0,0,1-2.89,3H48a2.94,2.94,0,0,1-3-2.89V16a3,3,0,0,1,3-3m0-1a4,4,0,1,0,4,4A4,4,0,0,0,48,12Z"/></g></svg>