<svg xmlns="http://www.w3.org/2000/svg" width="89.696" height="20.715" viewBox="0 0 89.696 20.715">
  <g id="Group_1968" data-name="Group 1968" transform="translate(0 0)">
    <g id="Group_1689" data-name="Group 1689">
      <path id="Path_462" data-name="Path 462" d="M23.269,16.265l-.358-1.313.866-.866a10.011,10.011,0,0,0-.627-1.075l-1.194.328-.985-.985.328-1.194a6.333,6.333,0,0,0-1.075-.627l-.866.866-1.343-.358-.328-1.194a8.371,8.371,0,0,0-1.224,0l-.328,1.194-1.343.358-.866-.866a10.01,10.01,0,0,0-1.075.627l.328,1.194-.985.985L11,13.011a6.333,6.333,0,0,0-.627,1.075l.925.866-.358,1.343-1.194.328a8.371,8.371,0,0,0,0,1.224l1.194.328.358,1.343-.866.866a10.011,10.011,0,0,0,.627,1.075l1.194-.328.985.985-.328,1.194a6.333,6.333,0,0,0,1.075.627l.866-.866,1.343.358.3,1.134h1.254l.3-1.134,1.343-.358.866.866a10.01,10.01,0,0,0,1.075-.627L21,22.115l.985-.985,1.194.328a6.332,6.332,0,0,0,.627-1.075l-.866-.866.358-1.343,1.194-.328a8.372,8.372,0,0,0,0-1.224Zm-.806,2.269a5.5,5.5,0,1,1-4.03-6.656,5.523,5.523,0,0,1,4.03,6.656" transform="translate(-6.822 -6.892)" fill="#c00"/>
      <path id="Path_463" data-name="Path 463" d="M24.65,19.291a4.612,4.612,0,1,0,3.373,5.582,4.624,4.624,0,0,0-3.373-5.582m2.507,5.433a3.707,3.707,0,1,1-2.627-4.537,3.714,3.714,0,0,1,2.627,4.537" transform="translate(-13.278 -13.441)" fill="#221f1f"/>
      <path id="Path_464" data-name="Path 464" d="M33.648,0A.459.459,0,0,0,33.2.448V1.821a.448.448,0,1,0,.9,0V.448A.459.459,0,0,0,33.648,0" transform="translate(-23.29)" fill="#c00"/>
      <path id="Path_465" data-name="Path 465" d="M33.648,61.8a.459.459,0,0,0-.448.448v1.373a.448.448,0,1,0,.9,0V62.248a.459.459,0,0,0-.448-.448" transform="translate(-23.29 -43.353)" fill="#c00"/>
      <path id="Path_466" data-name="Path 466" d="M54.9,9.884a.433.433,0,0,0-.627,0l-.985.955a.443.443,0,0,0,.627.627l.985-.955a.5.5,0,0,0,0-.627" transform="translate(-37.285 -6.84)" fill="#c00"/>
      <path id="Path_467" data-name="Path 467" d="M11.4,52.984a.433.433,0,0,0-.627,0l-.985.955a.443.443,0,0,0,.627.627l.985-.955a.433.433,0,0,0,0-.627" transform="translate(-6.77 -37.075)" fill="#c00"/>
      <path id="Path_468" data-name="Path 468" d="M63.469,33.448A.459.459,0,0,0,63.021,33H61.648a.448.448,0,1,0,0,.9h1.373a.44.44,0,0,0,.448-.448" transform="translate(-42.932 -23.15)" fill="#c00"/>
      <path id="Path_469" data-name="Path 469" d="M2.269,33.248a.459.459,0,0,0-.448-.448H.448a.448.448,0,0,0,0,.9H1.821a.459.459,0,0,0,.448-.448" transform="translate(0 -23.009)" fill="#c00"/>
      <path id="Path_470" data-name="Path 470" d="M54.766,54.7a.433.433,0,0,0,0-.627l-.955-.985a.443.443,0,0,0-.627.627l.955.985a.432.432,0,0,0,.627,0" transform="translate(-37.215 -37.145)" fill="#c00"/>
      <path id="Path_471" data-name="Path 471" d="M11.6,11.266a.433.433,0,0,0,0-.627l-.985-.955a.443.443,0,1,0-.627.627l.955.985a.5.5,0,0,0,.657-.03" transform="translate(-6.91 -6.699)" fill="#c00"/>
    </g>
    <g id="Group_1690" data-name="Group 1690" transform="translate(23.67 4.656)">
      <path id="Path_472" data-name="Path 472" d="M79.3,15.6h1.015v9.552H85.18v.925H79.3Z" transform="translate(-79.3 -15.6)"/>
      <path id="Path_473" data-name="Path 473" d="M108.83,15.6h1.045v6.806a2.971,2.971,0,0,0,5.94-.03V15.6h1.015v6.806a4.02,4.02,0,0,1-8.029,0V15.6Z" transform="translate(-99.994 -15.6)"/>
      <path id="Path_474" data-name="Path 474" d="M150.346,15.6h1.075l2.746,6.149c.239.537.507,1.284.507,1.284h.03s.269-.746.507-1.284l2.746-6.149H159l.836,10.477h-1.015l-.567-7.313c-.03-.567-.03-1.463-.03-1.463h-.03s-.3.925-.537,1.463l-2.448,5.373h-.955l-2.448-5.373c-.239-.507-.567-1.492-.567-1.492h-.03s0,.925-.03,1.492l-.567,7.313H149.6Z" transform="translate(-128.616 -15.6)"/>
      <path id="Path_475" data-name="Path 475" d="M200.077,22.734h-4.209l-1.194,3.343H193.6L197.451,15.6h1.1l3.821,10.477H201.3Zm-2.119-6.059s-.209.866-.388,1.343l-1.4,3.791h3.612l-1.373-3.791c-.179-.478-.418-1.343-.448-1.343Z" transform="translate(-159.483 -15.6)"/>
      <path id="Path_476" data-name="Path 476" d="M233.7,15.6h3.373a4.867,4.867,0,0,1,5.253,5.224,4.875,4.875,0,0,1-5.253,5.253H233.7Zm3.283,9.552a3.976,3.976,0,0,0,4.3-4.328,3.968,3.968,0,0,0-4.3-4.3h-2.239v8.626Z" transform="translate(-187.613 -15.6)"/>
      <path id="Path_477" data-name="Path 477" d="M277.477,22.734h-4.209l-1.194,3.343H271L274.85,15.6h1.1l3.85,10.477h-1.075Zm-2.119-6.059s-.209.866-.388,1.343l-1.4,3.791h3.612l-1.373-3.791c-.179-.478-.418-1.343-.448-1.343Z" transform="translate(-213.779 -15.6)"/>
    </g>
  </g>
</svg>
