<svg xmlns="http://www.w3.org/2000/svg" xmlns:xlink="http://www.w3.org/1999/xlink" width="1200" height="1137.285" viewBox="0 0 1200 1137.285">
  <defs>
    <clipPath id="clip-Tab4">
      <rect width="1200" height="1137.285"/>
    </clipPath>
  </defs>
  <g id="Tab4" clip-path="url(#clip-Tab4)">
    <rect width="1200" height="1137.285" fill="#f9f9f9"/>
    <g id="Group_2340" data-name="Group 2340" transform="translate(-220 -81)">
      <g id="Group_2316" data-name="Group 2316" transform="translate(250 1055)">
        <rect id="Rectangle_1315" data-name="Rectangle 1315" width="1133.842" height="58" transform="translate(0)" fill="#d1d2d3"/>
      </g>
      <g id="Group_2316-2" data-name="Group 2316" transform="translate(250 1055)">
        <rect id="Rectangle_1315-2" data-name="Rectangle 1315" width="1133.842" height="58" transform="translate(0)" fill="#d1d2d3"/>
      </g>
      <g id="Group_2328" data-name="Group 2328" transform="translate(638 718)">
        <rect id="Rectangle_1296" data-name="Rectangle 1296" width="723.654" height="32" transform="translate(744.109 280) rotate(180)" fill="#d1d2d3"/>
        <rect id="Rectangle_1297" data-name="Rectangle 1297" width="743.654" height="32" transform="translate(745.871 218) rotate(180)" fill="#d1d2d3"/>
        <rect id="Rectangle_1298" data-name="Rectangle 1298" width="731.654" height="32" transform="translate(744.802 156) rotate(180)" fill="#d1d2d3"/>
        <rect id="Rectangle_1303" data-name="Rectangle 1303" width="723.654" height="32" transform="translate(743.654 94) rotate(180)" fill="#d1d2d3"/>
        <rect id="Rectangle_1304" data-name="Rectangle 1304" width="743.654" height="32" transform="translate(743.654 32) rotate(180)" fill="#d1d2d3"/>
      </g>
      <g id="Group_2325" data-name="Group 2325" transform="translate(250 81)">
        <rect id="Rectangle_1305" data-name="Rectangle 1305" width="552" height="218" fill="#d1d2d3"/>
      </g>
      <g id="Group_2329" data-name="Group 2329" transform="translate(250 717)">
        <rect id="Rectangle_1305-2" data-name="Rectangle 1305" width="358" height="281" fill="#d1d2d3"/>
      </g>
      <g id="Group_2326" data-name="Group 2326" transform="translate(832 81)">
        <rect id="Rectangle_1305-3" data-name="Rectangle 1305" width="551.871" height="218" fill="#d1d2d3"/>
      </g>
      <rect id="Rectangle_1328" data-name="Rectangle 1328" width="338" height="32" transform="translate(608 628) rotate(180)" fill="#d1d2d3"/>
      <rect id="Rectangle_1332" data-name="Rectangle 1332" width="335.28" height="32" transform="translate(996 628) rotate(180)" fill="#d1d2d3"/>
      <rect id="Rectangle_1336" data-name="Rectangle 1336" width="338" height="32" transform="translate(1384 628) rotate(180)" fill="#d1d2d3"/>
      <rect id="Rectangle_1327" data-name="Rectangle 1327" width="358" height="32" transform="translate(608 566) rotate(180)" fill="#d1d2d3"/>
      <rect id="Rectangle_1331" data-name="Rectangle 1331" width="355.28" height="32" transform="translate(993.28 566) rotate(180)" fill="#d1d2d3"/>
      <rect id="Rectangle_1335" data-name="Rectangle 1335" width="358" height="32" transform="translate(1384 566) rotate(180)" fill="#d1d2d3"/>
      <rect id="Rectangle_1326" data-name="Rectangle 1326" width="346" height="32" transform="translate(608 504) rotate(180)" fill="#d1d2d3"/>
      <rect id="Rectangle_1330" data-name="Rectangle 1330" width="343.28" height="32" transform="translate(994.933 504) rotate(180)" fill="#d1d2d3"/>
      <rect id="Rectangle_1334" data-name="Rectangle 1334" width="346" height="32" transform="translate(1384 504) rotate(180)" fill="#d1d2d3"/>
      <rect id="Rectangle_1325" data-name="Rectangle 1325" width="358" height="96" transform="translate(608 444) rotate(180)" fill="#d1d2d3"/>
      <rect id="Rectangle_1329" data-name="Rectangle 1329" width="355.28" height="96" transform="translate(993.28 444) rotate(180)" fill="#d1d2d3"/>
      <rect id="Rectangle_1333" data-name="Rectangle 1333" width="358" height="96" transform="translate(1384 444) rotate(180)" fill="#d1d2d3"/>
    </g>
  </g>
</svg>
