<svg xmlns="http://www.w3.org/2000/svg" xmlns:xlink="http://www.w3.org/1999/xlink" width="1200" height="1137.285" viewBox="0 0 1200 1137.285"><defs><clipPath id="b"><rect width="1200" height="1137.285"/></clipPath></defs><g id="a" clip-path="url(#b)"><rect width="1200" height="1137.285" fill="#f9f9f9"/><g transform="translate(-217.871 -21)"><g transform="translate(250 1055)"><rect width="1034.871" height="58" transform="translate(0)" fill="#d1d2d3"/></g><rect width="549.871" height="613" transform="translate(250 396)" fill="#d1d2d3"/><rect width="551.62" height="32" transform="translate(830.251 396)" fill="#d1d2d3"/><rect width="551.62" height="32" transform="translate(830.251 706)" fill="#d1d2d3"/><rect width="531.62" height="32" transform="translate(830.251 458)" fill="#d1d2d3"/><rect width="531.62" height="32" transform="translate(830.251 768)" fill="#d1d2d3"/><rect width="551.62" height="32" transform="translate(830.251 520)" fill="#d1d2d3"/><rect width="551.62" height="32" transform="translate(830.251 830)" fill="#d1d2d3"/><rect width="531.62" height="32" transform="translate(830.251 582)" fill="#d1d2d3"/><rect width="531.62" height="32" transform="translate(830.251 892)" fill="#d1d2d3"/><rect width="542.62" height="32" transform="translate(830.251 644)" fill="#d1d2d3"/><rect width="542.62" height="32" transform="translate(830.251 954)" fill="#d1d2d3"/><rect width="552" height="280" transform="translate(1381.871 361) rotate(180)" fill="#d1d2d3"/><rect width="298" height="32" transform="translate(799.871 361) rotate(180)" fill="#d1d2d3"/><rect width="318" height="32" transform="translate(799.871 299) rotate(180)" fill="#d1d2d3"/><rect width="306" height="32" transform="translate(799.871 237) rotate(180)" fill="#d1d2d3"/><rect width="318" height="96" transform="translate(799.871 177) rotate(180)" fill="#d1d2d3"/></g></g></svg>