<svg id="Layer_1" data-name="Layer 1" xmlns="http://www.w3.org/2000/svg" width="64" height="32" viewBox="0 0 64 32"><defs><style>.cls-1{fill:none;}.cls-2{fill:#414141;}</style></defs><title>Artboard 1</title><g id="Search-16"><path id="Path_1651" data-name="Path 1651" class="cls-1" d="M0,0H32V32H0Z"/><path id="Path_2282" data-name="Path 2282" class="cls-2" d="M23.2,22.5l-4.6-4.6A5.79,5.79,0,0,0,20,14a5.93,5.93,0,1,0-2.1,4.6l4.6,4.6Zm-9.1-3.4a5,5,0,1,1,.1,0Z"/></g><g id="Close-16"><rect id="Rectangle_976" data-name="Rectangle 976" class="cls-1" x="32" width="32" height="32"/><path id="Path_1904" data-name="Path 1904" class="cls-2" d="M54,10.7l-.7-.7L48,15.3,42.7,10l-.7.7L47.3,16,42,21.3l.7.7L48,16.7,53.3,22l.7-.7L48.7,16Z"/></g></svg>