<svg xmlns="http://www.w3.org/2000/svg" viewBox="0 0 32 32">
  <defs>
    <style>
      .cls-1 {
        fill: none;
      }

      .cls-2 {
        fill: #4389db;
      }
    </style>
  </defs>
  <g id="Warning-16" transform="translate(-681 -2895)">
    <rect id="Rectangle_999" data-name="Rectangle 999" class="cls-1" width="32" height="32" transform="translate(681 2895)"/>
    <g id="Group_3991" data-name="Group 3991">
      <g id="Group_3992" data-name="Group 3992">
        <g id="Ellipse_18" transform="translate(689 2903)">
          <circle id="Ellipse_214" data-name="Ellipse 214" class="cls-1" cx="8" cy="8" r="8"/>
          <path id="Path_1931" data-name="Path 1931" class="cls-2" d="M8,16a8,8,0,1,1,8-8A8.024,8.024,0,0,1,8,16ZM8,1A6.957,6.957,0,0,0,1,8a6.957,6.957,0,0,0,7,7,6.957,6.957,0,0,0,7-7A6.957,6.957,0,0,0,8,1Z"/>
        </g>
        <rect id="Rectangle_1888" data-name="Rectangle 1888" class="cls-2" width="1" height="6" transform="translate(697.5 2915) rotate(180)"/>
        <rect id="Rectangle_1889" data-name="Rectangle 1889" class="cls-2" width="1" height="1" transform="translate(697.5 2908) rotate(180)"/>
      </g>
    </g>
  </g>
</svg>
