<svg xmlns="http://www.w3.org/2000/svg" xmlns:xlink="http://www.w3.org/1999/xlink" width="1200" height="1137.285" viewBox="0 0 1200 1137.285"><defs><clipPath id="b"><rect width="1200" height="1137.285"/></clipPath></defs><g id="a" clip-path="url(#b)"><rect width="1200" height="1137.285" fill="#f9f9f9"/><g transform="translate(-2.129 -255)"><g transform="translate(32.129 974)"><rect width="1034.871" height="58" transform="translate(0)" fill="#d1d2d3"/></g><rect width="549.871" height="613" transform="translate(32.129 315)" fill="#d1d2d3"/><rect width="551.62" height="32" transform="translate(612.38 315)" fill="#d1d2d3"/><rect width="551.62" height="32" transform="translate(612.38 625)" fill="#d1d2d3"/><rect width="531.62" height="32" transform="translate(612.38 377)" fill="#d1d2d3"/><rect width="531.62" height="32" transform="translate(612.38 687)" fill="#d1d2d3"/><rect width="551.62" height="32" transform="translate(612.38 439)" fill="#d1d2d3"/><rect width="551.62" height="32" transform="translate(612.38 749)" fill="#d1d2d3"/><rect width="531.62" height="32" transform="translate(612.38 501)" fill="#d1d2d3"/><rect width="531.62" height="32" transform="translate(612.38 811)" fill="#d1d2d3"/><rect width="542.62" height="32" transform="translate(612.38 563)" fill="#d1d2d3"/><rect width="542.62" height="32" transform="translate(612.38 873)" fill="#d1d2d3"/><rect width="552" height="280" transform="translate(1164 1361) rotate(180)" fill="#d1d2d3"/><rect width="318" height="96" transform="translate(582 1177) rotate(180)" fill="#d1d2d3"/><rect width="298" height="32" transform="translate(582 1361) rotate(180)" fill="#d1d2d3"/><rect width="318" height="32" transform="translate(582 1299) rotate(180)" fill="#d1d2d3"/><rect width="306" height="32" transform="translate(582 1237) rotate(180)" fill="#d1d2d3"/></g></g></svg>