<svg xmlns="http://www.w3.org/2000/svg" xmlns:xlink="http://www.w3.org/1999/xlink" width="1200" height="1137.285" viewBox="0 0 1200 1137.285"><defs><clipPath id="b"><rect width="1200" height="1137.285"/></clipPath></defs><g id="a" clip-path="url(#b)"><rect width="1200" height="1137.285" fill="#f9f9f9"/><g transform="translate(-220 -21)"><g transform="translate(250 1005)"><rect width="940" height="58" transform="translate(0)" fill="#d1d2d3"/></g><g transform="translate(200 -19)"><rect width="358" height="280" transform="translate(50 100)" fill="#d1d2d3"/><rect width="552" height="280" transform="translate(50 424)" fill="#d1d2d3"/><rect width="939.871" height="216" transform="translate(50 748)" fill="#d1d2d3"/><rect width="298" height="32" transform="translate(439.892 100)" fill="#d1d2d3"/><rect width="262" height="32" transform="translate(826 100)" fill="#d1d2d3"/><rect width="307" height="32" transform="translate(632 424)" fill="#d1d2d3"/><rect width="318" height="32" transform="translate(438 162)" fill="#d1d2d3"/><rect width="298" height="32" transform="translate(826 162)" fill="#d1d2d3"/><rect width="287" height="32" transform="translate(632 486)" fill="#d1d2d3"/><rect width="306" height="32" transform="translate(439.147 224)" fill="#d1d2d3"/><rect width="318" height="32" transform="translate(826 224)" fill="#d1d2d3"/><rect width="307" height="32" transform="translate(632 548)" fill="#d1d2d3"/><rect width="287" height="32" transform="translate(632 610)" fill="#d1d2d3"/><rect width="298" height="32" transform="translate(632 672)" fill="#d1d2d3"/></g></g></g></svg>