<svg xmlns="http://www.w3.org/2000/svg" xmlns:xlink="http://www.w3.org/1999/xlink" width="1200" height="1137.285" viewBox="0 0 1200 1137.285"><defs><clipPath id="b"><rect width="1200" height="1137.285"/></clipPath></defs><g id="a" clip-path="url(#b)"><rect width="1200" height="1137.285" fill="#f9f9f9"/><g transform="translate(-220 -21)"><g transform="translate(250 81)"><rect width="746.172" height="613" transform="translate(0)" fill="#d1d2d3"/><rect width="358" height="32" transform="translate(776)" fill="#d1d2d3"/><rect width="358" height="32" transform="translate(776 310)" fill="#d1d2d3"/><rect width="334.678" height="32" transform="translate(776 62)" fill="#d1d2d3"/><rect width="334.678" height="32" transform="translate(776 372)" fill="#d1d2d3"/><rect width="358" height="32" transform="translate(776 124)" fill="#d1d2d3"/><rect width="358" height="32" transform="translate(776 434)" fill="#d1d2d3"/><rect width="334.678" height="32" transform="translate(776 186)" fill="#d1d2d3"/><rect width="334.678" height="32" transform="translate(776 496)" fill="#d1d2d3"/><rect width="347.505" height="32" transform="translate(776 248)" fill="#d1d2d3"/><rect width="347.505" height="32" transform="translate(776 558)" fill="#d1d2d3"/></g><rect width="163.604" height="163.6" transform="translate(250 729)" fill="#d1d2d3"/><rect width="357.604" height="357.6" transform="translate(1026.396 729)" fill="#d1d2d3"/><rect width="163.604" height="163.6" transform="translate(250 923)" fill="#d1d2d3"/><rect width="163.604" height="163.6" transform="translate(444.396 729)" fill="#d1d2d3"/><rect width="357.604" height="66.8" transform="translate(638.396 729)" fill="#d1d2d3"/><rect width="260.604" height="66.8" transform="translate(638.396 826)" fill="#d1d2d3"/><rect width="306.604" height="66.8" transform="translate(638.396 923)" fill="#d1d2d3"/><rect width="357.604" height="66.8" transform="translate(638.396 1020.001)" fill="#d1d2d3"/><rect width="163.604" height="163.6" transform="translate(444.396 923)" fill="#d1d2d3"/></g></g></svg>