<?xml version="1.0" encoding="utf-8"?>
<!-- Generator: Adobe Illustrator 23.0.2, SVG Export Plug-In . SVG Version: 6.00 Build 0)  -->
<svg version="1.1" id="Layer_1" xmlns="http://www.w3.org/2000/svg" xmlns:xlink="http://www.w3.org/1999/xlink" x="0px" y="0px"
	 viewBox="0 0 1200 40" style="enable-background:new 0 0 1200 40;" xml:space="preserve">
<defs>
<style type="text/css">
@font-face {
      font-family: 'Open Sans';
      font-style: normal;
      font-weight: 400;
      src: url('OpenSans-Regular.ttf'), local('Open Sans Regular'), local('OpenSans-Regular');
    }

    @font-face {
      font-family: 'OpenSans-Semibold';
      font-style: normal;
      font-weight: 600;
      src: url('OpenSans-SemiBold.ttf'), local('Open Sans Semibold'), local('OpenSans-Semibold');
  }
	.st0{fill:#FFFFFF;}
	.st1{fill:none;stroke:#DEDEDE;}
	.st2{fill:#CC0000;}
	.st3{fill:none;}
	.st4{fill:#414141;}
	.st5{font-family:'OpenSans-Semibold';}
	.st6{font-size:14px;}
	.st7{fill:#221F1F;}
	
</style>
</defs>
 
<title>header-top-solo</title>
<g id="Group_2108">
	<g id="bar">
		<path id="Path_311" class="st0" d="M0,4h1200v36H0V4z"/>
		<path id="Path_312" class="st1" d="M1200,39.5"/>
	</g>
	<path id="Path_305" class="st2" d="M0,0h1200v4H0V0z"/>
	<g id="Settings-16">
		<rect id="Rectangle_1010" x="1148" y="6" class="st3" width="32" height="32"/>
		<g id="Group_3901">
			<circle id="Ellipse_212" class="st3" cx="1164" cy="22" r="6"/>
			<path id="Path_1907" class="st4" d="M1172,22.5v-1h-2c-0.1-1.3-0.6-2.4-1.4-3.4l1.4-1.4l-0.7-0.7l-1.4,1.4
				c-0.9-0.8-2.1-1.3-3.4-1.4v-2h-1v2c-1.3,0.1-2.4,0.6-3.4,1.4l-1.5-1.5l-0.7,0.7l1.5,1.5c-0.8,1-1.3,2.1-1.4,3.4h-2v1h2
				c0.1,1.3,0.6,2.4,1.4,3.4l-1.4,1.4l0.7,0.7l1.4-1.4c1,0.8,2.1,1.3,3.4,1.4v2h1v-2c1.2-0.1,2.4-0.6,3.4-1.4l1.4,1.4l0.7-0.7
				l-1.4-1.4c0.8-1,1.3-2.1,1.4-3.4L1172,22.5z M1164,17c1.3,0,2.5,0.5,3.4,1.3l0.3,0.3c0.8,0.9,1.3,2.1,1.3,3.4
				c0,1.2-0.5,2.4-1.3,3.3l-0.4,0.4c-1.9,1.8-4.9,1.7-6.8-0.1l-0.2-0.2c-0.9-1-1.4-2.2-1.4-3.5C1159,19.2,1161.3,17,1164,17z"/>
		</g>
	</g>
	<rect id="Rectangle_2359" x="766" y="4" class="st3" width="90" height="36"/>
	<path id="Path_3066" class="st1" d="M117.5,30.5v-20"/>
	<g id="Group_5913">
		<g id="App_Title">
			<g id="App_Name">
				<g id="Maintenance_Insights">
					<text transform="matrix(1 0 0 1 127.5 27)" class="st4 st5 st6">Maintenance Insights</text>
				</g>
			</g>
		</g>
	</g>
	<g id="Group_5926">
		<g id="Group_1689">
			<path id="Path_462" class="st2" d="M36.9,21l-0.3-1.3l0.8-0.8c-0.2-0.3-0.4-0.7-0.6-1l-1.2,0.3l-1-1l0.3-1.1
				c-0.3-0.2-0.6-0.4-1-0.6l-0.8,0.8L31.8,16l-0.3-1.1c-0.4,0-0.8,0-1.2,0L30,16l-1.3,0.4l-0.8-0.8c-0.3,0.2-0.7,0.4-1,0.6l0.3,1.1
				l-1,1L25,17.9c-0.2,0.3-0.4,0.6-0.6,1l0.9,0.8L25,21.1l-1.2,0.3c0,0.4,0,0.8,0,1.2l1.2,0.3l0.3,1.3L24.5,25
				c0.2,0.3,0.4,0.7,0.6,1l1.2-0.3l1,1l-0.3,1.1c0.3,0.2,0.6,0.4,1,0.6l0.8-0.8l1.3,0.3l0.3,1.1h1.2l0.3-1.1l1.3-0.3l0.8,0.8
				c0.3-0.2,0.7-0.4,1-0.6l-0.3-1.2l1-1l1.2,0.3c0.2-0.3,0.4-0.6,0.6-1l-0.8-0.8l0.3-1.3l1.2-0.3c0-0.4,0-0.8,0-1.2L36.9,21z
				 M36.1,23.2c-0.7,2.8-3.6,4.6-6.4,3.9c-2.8-0.7-4.6-3.6-3.9-6.4c0.7-2.8,3.6-4.6,6.4-3.9C35.1,17.5,36.8,20.4,36.1,23.2"/>
			<path id="Path_463" class="st7" d="M32,17.6c-2.4-0.6-4.8,0.9-5.4,3.3s0.9,4.8,3.3,5.4c2.4,0.6,4.8-0.9,5.4-3.3c0,0,0,0,0,0
				C35.8,20.6,34.4,18.2,32,17.6 M34.4,22.9c-0.5,1.9-2.5,3-4.4,2.5c-1.9-0.5-3-2.5-2.5-4.4c0.5-1.9,2.5-3,4.4-2.5l0,0
				C33.8,19,34.9,21,34.4,22.9C34.4,22.9,34.4,22.9,34.4,22.9"/>
			<path id="Path_464" class="st2" d="M31,12c-0.2,0-0.4,0.2-0.4,0.4v1.3c0,0.2,0.2,0.4,0.4,0.4s0.4-0.2,0.4-0.4v-1.3
				C31.4,12.2,31.2,12,31,12"/>
			<path id="Path_465" class="st2" d="M31,29.8c-0.2,0-0.4,0.2-0.4,0.4v1.3c0,0.2,0.2,0.4,0.4,0.4s0.4-0.2,0.4-0.4v-1.3
				C31.4,30,31.2,29.8,31,29.8"/>
			<path id="Path_466" class="st2" d="M38,14.9c-0.2-0.2-0.4-0.2-0.6,0c0,0,0,0,0,0l0,0l-1,0.9c-0.2,0.2-0.2,0.4,0,0.6c0,0,0,0,0,0
				c0.2,0.2,0.4,0.2,0.6,0c0,0,0,0,0,0l1-0.9C38.1,15.4,38.1,15.1,38,14.9"/>
			<path id="Path_467" class="st2" d="M25.5,27.3c-0.2-0.2-0.4-0.2-0.6,0c0,0,0,0,0,0l0,0l-1,0.9c-0.1,0.2-0.1,0.5,0.1,0.6
				c0.2,0.1,0.4,0.1,0.5,0l1-0.9C25.7,27.8,25.7,27.5,25.5,27.3L25.5,27.3"/>
			<path id="Path_468" class="st2" d="M40.8,21.9c0-0.2-0.2-0.4-0.4-0.4h-1.3c-0.2,0-0.4,0.2-0.4,0.4c0,0.2,0.2,0.4,0.4,0.4h1.3
				C40.6,22.4,40.8,22.2,40.8,21.9C40.8,22,40.8,22,40.8,21.9L40.8,21.9"/>
			<path id="Path_469" class="st2" d="M23.2,21.9c0-0.2-0.2-0.4-0.4-0.4h-1.3c-0.2,0-0.4,0.2-0.4,0.4c0,0.2,0.2,0.4,0.4,0.4h1.3
				C23,22.3,23.2,22.1,23.2,21.9"/>
			<path id="Path_470" class="st2" d="M37.9,28.9c0.2-0.2,0.2-0.4,0-0.6c0,0,0,0,0,0l0,0l-0.9-1c-0.2-0.2-0.4-0.2-0.6,0c0,0,0,0,0,0
				c-0.2,0.2-0.2,0.4,0,0.6l0.9,1C37.5,29.1,37.8,29.1,37.9,28.9C37.9,28.9,37.9,28.9,37.9,28.9L37.9,28.9"/>
			<path id="Path_471" class="st2" d="M25.5,16.4c0.2-0.2,0.2-0.4,0-0.6l0,0l-1-0.9c-0.2-0.2-0.4-0.2-0.6,0c0,0,0,0,0,0
				c-0.2,0.2-0.2,0.4,0,0.6c0,0,0,0,0,0l0.9,1C25,16.6,25.3,16.6,25.5,16.4"/>
		</g>
		<g id="Group_1690">
			<path id="Path_472" d="M43.8,16.5h1v9.2h4.7v0.9h-5.7L43.8,16.5z"/>
			<path id="Path_473" d="M52.4,16.5h1v6.6c0,1.6,1.3,2.9,2.9,2.9c1.6,0,2.9-1.3,2.9-2.9v-6.5h1v6.6c-0.1,2.1-1.9,3.8-4.1,3.7
				c-2-0.1-3.6-1.7-3.7-3.7L52.4,16.5L52.4,16.5z"/>
			<path id="Path_474" d="M64.8,16.5h1l2.6,5.9c0.2,0.5,0.5,1.2,0.5,1.2l0,0c0,0,0.3-0.7,0.5-1.2l2.6-5.9h1l0.8,10.1h-1l-0.6-7.1
				c0-0.5,0-1.4,0-1.4l0,0c0,0-0.3,0.9-0.5,1.4l-2.4,5.2h-0.9l-2.4-5.2c-0.2-0.5-0.6-1.4-0.6-1.4l0,0c0,0,0,0.9,0,1.4l-0.6,7.1h-1
				L64.8,16.5z"/>
			<path id="Path_475" d="M83.1,23.4H79l-1.1,3.2h-1l3.7-10.1h1.1l3.7,10.1h-1L83.1,23.4z M81,17.5c0,0-0.2,0.8-0.4,1.3l-1.4,3.7
				h3.5l-1.3-3.7C81.3,18.4,81,17.5,81,17.5L81,17.5z"/>
			<path id="Path_476" d="M88.4,16.5h3.2c2.6-0.2,4.9,1.7,5.1,4.3c0,0,0,0,0,0c0,0.2,0,0.5,0,0.8c0.2,2.6-1.7,4.9-4.3,5.1
				c-0.3,0-0.5,0-0.8,0h-3.2L88.4,16.5z M91.5,25.7c2.3,0,4.2-1.9,4.2-4.2c0-2-1.5-3.8-3.5-4.1c-0.2,0-0.4,0-0.7,0h-2.2v8.3H91.5z"
				/>
			<path id="Path_477" d="M105.4,23.4h-4.1l-1.2,3.2h-1l3.7-10.1h1.1l3.7,10.1h-1L105.4,23.4z M103.4,17.5c0,0-0.2,0.8-0.4,1.3
				l-1.4,3.7h3.5l-1.3-3.7C103.6,18.3,103.3,17.5,103.4,17.5L103.4,17.5z"/>
		</g>
	</g>
</g>
</svg>
